<?xml version="1.0" encoding="UTF-8" standalone="no"?>
<svg
   xmlns:dc="http://purl.org/dc/elements/1.1/"
   xmlns:cc="http://creativecommons.org/ns#"
   xmlns:rdf="http://www.w3.org/1999/02/22-rdf-syntax-ns#"
   xmlns:svg="http://www.w3.org/2000/svg"
   xmlns="http://www.w3.org/2000/svg"
   xmlns:sodipodi="http://sodipodi.sourceforge.net/DTD/sodipodi-0.dtd"
   xmlns:inkscape="http://www.inkscape.org/namespaces/inkscape"
   width="291mm"
   height="193mm"
   viewBox="0 0 291 193"
   version="1.1"
   preserveAspectRatio="xMidYMid meet"
   id="svg15"
   sodipodi:docname="Outer_Shell.svg"
   inkscape:version="0.92.4 (5da689c313, 2019-01-14)">
  <metadata
     id="metadata21">
    <rdf:RDF>
      <cc:Work
         rdf:about="">
        <dc:format>image/svg+xml</dc:format>
        <dc:type
           rdf:resource="http://purl.org/dc/dcmitype/StillImage" />
      </cc:Work>
    </rdf:RDF>
  </metadata>
  <defs
     id="defs19" />
  <sodipodi:namedview
     pagecolor="#ffffff"
     bordercolor="#666666"
     borderopacity="1"
     objecttolerance="10"
     gridtolerance="10"
     guidetolerance="10"
     inkscape:pageopacity="0"
     inkscape:pageshadow="2"
     inkscape:window-width="1920"
     inkscape:window-height="1051"
     id="namedview17"
     showgrid="false"
     inkscape:zoom="0.74749578"
     inkscape:cx="601.37079"
     inkscape:cy="405.6162"
     inkscape:window-x="-9"
     inkscape:window-y="-9"
     inkscape:window-maximized="1"
     inkscape:current-layer="svgGroup" />
  <g
     id="svgGroup"
     stroke-linecap="round"
     fill-rule="evenodd"
     font-size="9pt"
     stroke="#000"
     stroke-width="0.25mm"
     fill="none"
     style="stroke:#000;stroke-width:0.25mm;fill:none">
    <path
       d="M 0 113 L 0 128.25 L 3 128.25 L 3 144.75 L 0 144.75 L 0 161.25 L 3 161.25 L 3 177.75 L 0 177.75 L 0 193 L 22.75 193 L 22.75 190 L 39.25 190 L 39.25 193 L 55.75 193 L 55.75 190 L 72.25 190 L 72.25 193 L 88.75 193 L 95 193 L 95 177.75 L 92 177.75 L 92 161.25 L 95 161.25 L 95 144.75 L 92 144.75 L 92 128.25 L 95 128.25 L 95 113 L 72.25 113 L 72.25 116 L 55.75 116 L 55.75 113 L 39.25 113 L 39.25 116 L 22.75 116 L 22.75 113 L 6.25 113 L 0 113 Z"
       id="front_outsideCutPath"
       stroke="#FF0000"
       stroke-width="0.1"
       style="stroke:#FF0000;stroke-width:0.74400001;stroke-miterlimit:4;stroke-dasharray:none"
       vector-effect="non-scaling-stroke" />
    <path
       d="m 58.498599,208.52926 h -1.297 v -5.539 a 3.666,3.666 0 0 0 -0.042,-0.575 q -0.048,-0.303 -0.151,-0.544 a 1.543,1.543 0 0 0 -0.283,-0.444 1.462,1.462 0 0 0 -0.6,-0.382 q -0.235,-0.084 -0.525,-0.115 a 3.438,3.438 0 0 0 -0.367,-0.018 q -0.886,0 -1.459,0.315 a 1.828,1.828 0 0 0 -0.51,0.411 2.12,2.12 0 0 0 -0.369,0.644 q -0.222,0.592 -0.252,1.473 a 8.308,8.308 0 0 0 -0.004,0.282 v 4.492 h -1.297 v -8.563 h 1.055 l 0.211,1.172 h 0.062 a 2.626,2.626 0 0 1 1.029,-0.936 3.158,3.158 0 0 1 0.088,-0.044 q 0.719,-0.348 1.602,-0.348 1.026,0 1.715,0.328 a 2.33,2.33 0 0 1 0.613,0.418 2.248,2.248 0 0 1 0.548,0.86 q 0.131,0.354 0.188,0.793 a 5.66,5.66 0 0 1 0.045,0.734 z m -24.914,-8.563 v 1.008 h -2.18 v 7.555 h -1.296 v -7.555 h -1.532 v -0.586 l 1.532,-0.469 v -0.476 a 5.256,5.256 0 0 1 0.122,-1.191 q 0.38,-1.625 1.933,-1.906 a 3.942,3.942 0 0 1 0.702,-0.059 4.176,4.176 0 0 1 0.591,0.045 q 0.46,0.066 1.003,0.228 l -0.336,1.039 q -0.533,-0.172 -0.955,-0.222 a 2.789,2.789 0 0 0 -0.326,-0.02 1.749,1.749 0 0 0 -0.422,0.048 1.123,1.123 0 0 0 -0.664,0.44 1.501,1.501 0 0 0 -0.198,0.4 q -0.154,0.455 -0.154,1.167 v 0.554 z m 31.516,7.492 v 0.993 a 1.276,1.276 0 0 1 -0.152,0.06 q -0.187,0.062 -0.469,0.108 a 5.621,5.621 0 0 1 -0.367,0.047 q -0.173,0.017 -0.328,0.019 a 3.325,3.325 0 0 1 -0.044,0 3.387,3.387 0 0 1 -0.998,-0.134 q -1.097,-0.339 -1.384,-1.531 a 4.076,4.076 0 0 1 -0.102,-0.952 v -5.094 h -1.227 v -0.625 l 1.227,-0.539 0.547,-1.828 h 0.75 v 1.984 h 2.484 v 1.008 h -2.484 v 5.039 a 2.611,2.611 0 0 0 0.038,0.459 q 0.079,0.447 0.329,0.729 0.367,0.414 1.008,0.414 a 4.259,4.259 0 0 0 0.624,-0.045 3.925,3.925 0 0 0 0.04,-0.006 q 0.306,-0.049 0.49,-0.101 a 1.951,1.951 0 0 0 0.018,-0.005 z m -25.024,-7.554 -0.179,1.203 a 5.716,5.716 0 0 0 -0.411,-0.076 q -0.205,-0.03 -0.388,-0.038 a 3.042,3.042 0 0 0 -0.139,-0.003 2.247,2.247 0 0 0 -1.66,0.717 3.074,3.074 0 0 0 -0.117,0.126 2.962,2.962 0 0 0 -0.715,1.663 3.936,3.936 0 0 0 -0.024,0.439 v 4.594 h -1.296 v -8.563 h 1.07 l 0.148,1.586 h 0.063 a 4.38,4.38 0 0 1 0.49,-0.699 3.345,3.345 0 0 1 0.658,-0.59 2.585,2.585 0 0 1 1.477,-0.453 5.954,5.954 0 0 1 0.533,0.023 4.345,4.345 0 0 1 0.49,0.071 z m 8.873,5.639 a 6.699,6.699 0 0 0 0.119,-1.303 q 0,-0.833 -0.176,-1.524 a 4.038,4.038 0 0 0 -0.882,-1.711 3.395,3.395 0 0 0 -1.576,-1.016 4.358,4.358 0 0 0 -1.28,-0.179 5.037,5.037 0 0 0 -0.904,0.078 3.43,3.43 0 0 0 -2.002,1.09 q -1.047,1.168 -1.047,3.262 a 6.488,6.488 0 0 0 0.082,1.051 4.798,4.798 0 0 0 0.403,1.308 4.263,4.263 0 0 0 0.094,0.185 3.511,3.511 0 0 0 1.281,1.362 q 0.89,0.539 2.039,0.539 a 5.036,5.036 0 0 0 0.879,-0.073 3.457,3.457 0 0 0 2.035,-1.103 3.618,3.618 0 0 0 0.431,-0.592 q 0.351,-0.601 0.504,-1.374 z m -6.404,-1.303 a 6.567,6.567 0 0 0 0.063,0.938 q 0.14,0.968 0.593,1.562 0.657,0.859 1.93,0.859 a 3.012,3.012 0 0 0 0.795,-0.099 2.096,2.096 0 0 0 1.139,-0.756 q 0.66,-0.856 0.66,-2.504 a 6.471,6.471 0 0 0 -0.062,-0.922 q -0.067,-0.47 -0.21,-0.85 a 2.67,2.67 0 0 0 -0.388,-0.709 2.133,2.133 0 0 0 -1.327,-0.791 3.271,3.271 0 0 0 -0.623,-0.056 3.086,3.086 0 0 0 -0.768,0.09 2.066,2.066 0 0 0 -1.154,0.746 2.681,2.681 0 0 0 -0.416,0.805 q -0.123,0.37 -0.181,0.823 a 6.853,6.853 0 0 0 -0.051,0.864 z"
       id="front_labelLayer"
       style="vector-effect:non-scaling-stroke;fill:#777777;stroke:#777777"
       inkscape:connector-curvature="0" />
    <path
       d="M 101 113 L 101 128.25 L 98 128.25 L 98 144.75 L 101 144.75 L 101 161.25 L 98 161.25 L 98 177.75 L 101 177.75 L 101 193 L 120.75 193 L 120.75 190 L 137.25 190 L 137.25 193 L 153.75 193 L 153.75 190 L 170.25 190 L 170.25 193 L 186.75 193 L 190 193 L 190 177.75 L 193 177.75 L 193 161.25 L 190 161.25 L 190 144.75 L 193 144.75 L 193 128.25 L 190 128.25 L 190 113 L 170.25 113 L 170.25 116 L 153.75 116 L 153.75 113 L 137.25 113 L 137.25 116 L 120.75 116 L 120.75 113 L 104.25 113 L 101 113 Z"
       id="left_outsideCutPath"
       stroke="#FF0000"
       stroke-width="0.1"
       style="stroke:#FF0000;stroke-width:0.74400001;stroke-miterlimit:4;stroke-dasharray:none"
       vector-effect="non-scaling-stroke" />
    <path
       d="m 154.69502,199.28602 v 1.008 h -2.179 v 7.555 h -1.297 v -7.555 h -1.531 v -0.586 l 1.531,-0.469 v -0.476 a 5.256,5.256 0 0 1 0.123,-1.191 q 0.379,-1.625 1.932,-1.906 a 3.942,3.942 0 0 1 0.703,-0.059 4.176,4.176 0 0 1 0.591,0.045 q 0.46,0.066 1.002,0.228 l -0.336,1.039 q -0.532,-0.172 -0.955,-0.222 a 2.789,2.789 0 0 0 -0.326,-0.02 1.749,1.749 0 0 0 -0.421,0.048 1.123,1.123 0 0 0 -0.665,0.44 1.501,1.501 0 0 0 -0.198,0.4 q -0.153,0.455 -0.153,1.167 v 0.554 z m -6.07,3.696 v 0.82 h -5.898 a 5.205,5.205 0 0 0 0.091,0.871 q 0.093,0.475 0.281,0.85 a 2.435,2.435 0 0 0 0.389,0.568 2.357,2.357 0 0 0 1.238,0.697 3.571,3.571 0 0 0 0.798,0.084 6.85,6.85 0 0 0 2.565,-0.508 7.848,7.848 0 0 0 0.169,-0.07 v 1.156 a 7.786,7.786 0 0 1 -0.71,0.268 5.954,5.954 0 0 1 -0.591,0.158 q -0.613,0.129 -1.48,0.129 a 5.04,5.04 0 0 1 -1.261,-0.149 3.568,3.568 0 0 1 -1.735,-1.007 q -1.035,-1.09 -1.094,-2.977 a 7.408,7.408 0 0 1 -0.004,-0.234 q 0,-2.07 1.019,-3.289 a 3.323,3.323 0 0 1 2.423,-1.208 4.585,4.585 0 0 1 0.316,-0.011 3.951,3.951 0 0 1 1.112,0.149 3.006,3.006 0 0 1 1.435,0.91 q 0.937,1.058 0.937,2.793 z m 11.57,3.796 v 0.993 a 1.276,1.276 0 0 1 -0.151,0.06 q -0.188,0.062 -0.47,0.108 a 5.621,5.621 0 0 1 -0.366,0.047 q -0.173,0.017 -0.328,0.019 a 3.325,3.325 0 0 1 -0.044,0 3.387,3.387 0 0 1 -0.998,-0.134 q -1.097,-0.339 -1.385,-1.531 a 4.076,4.076 0 0 1 -0.101,-0.952 v -5.094 h -1.227 v -0.625 l 1.227,-0.539 0.547,-1.828 h 0.75 v 1.984 h 2.484 v 1.008 h -2.484 v 5.039 a 2.611,2.611 0 0 0 0.037,0.459 q 0.08,0.447 0.33,0.729 0.367,0.414 1.008,0.414 a 4.259,4.259 0 0 0 0.623,-0.045 3.925,3.925 0 0 0 0.041,-0.006 q 0.305,-0.049 0.49,-0.101 a 1.951,1.951 0 0 0 0.017,-0.005 z m -21.086,-11.085 v 12.156 h -1.296 v -12.156 z m 3.649,7.054 h 4.476 q 0,-1.226 -0.546,-1.879 a 1.777,1.777 0 0 0 -1.07,-0.609 2.665,2.665 0 0 0 -0.493,-0.043 2.556,2.556 0 0 0 -0.738,0.101 1.975,1.975 0 0 0 -0.906,0.571 q -0.614,0.672 -0.723,1.859 z"
       id="left_labelLayer"
       style="vector-effect:non-scaling-stroke;fill:#777777;stroke:#777777"
       inkscape:connector-curvature="0" />
    <path
       d="M 199 101 L 199 120.75 L 196 120.75 L 196 137.25 L 199 137.25 L 199 153.75 L 196 153.75 L 196 170.25 L 199 170.25 L 199 186.75 L 199 190 L 218.75 190 L 218.75 193 L 235.25 193 L 235.25 190 L 251.75 190 L 251.75 193 L 268.25 193 L 268.25 190 L 284.75 190 L 288 190 L 288 170.25 L 291 170.25 L 291 153.75 L 288 153.75 L 288 137.25 L 291 137.25 L 291 120.75 L 288 120.75 L 288 104.25 L 288 101 L 268.25 101 L 268.25 98 L 251.75 98 L 251.75 101 L 235.25 101 L 235.25 98 L 218.75 98 L 218.75 101 L 202.25 101 L 199 101 Z"
       id="top_outsideCutPath"
       stroke="#FF0000"
       stroke-width="0.1"
       style="stroke:#FF0000;stroke-width:0.74400001;stroke-miterlimit:4;stroke-dasharray:none"
       vector-effect="non-scaling-stroke" />
    <path
       d="m 313.90096,148.42229 h -0.111 a 14.574,14.574 0 0 1 0.095,1.077 12.213,12.213 0 0 1 0.016,0.611 v 4.184 h -1.54 v -14.732 h 1.252 l 0.214,1.392 h 0.074 a 4.145,4.145 0 0 1 0.599,-0.681 3.206,3.206 0 0 1 0.783,-0.525 3.857,3.857 0 0 1 1.106,-0.324 4.992,4.992 0 0 1 0.703,-0.048 4.721,4.721 0 0 1 1.334,0.179 3.489,3.489 0 0 1 1.788,1.204 q 0.899,1.13 1.063,3.003 a 10.028,10.028 0 0 1 0.037,0.875 9.03,9.03 0 0 1 -0.12,1.519 q -0.138,0.81 -0.437,1.459 a 4.329,4.329 0 0 1 -0.561,0.914 3.646,3.646 0 0 1 -2.591,1.362 5.223,5.223 0 0 1 -0.513,0.025 4.671,4.671 0 0 1 -1.173,-0.144 4.064,4.064 0 0 1 -0.64,-0.223 3.411,3.411 0 0 1 -1.378,-1.127 z m -15.048,0.037 v 1.178 q -0.25,0.121 -0.737,0.2 a 6.675,6.675 0 0 1 -0.436,0.056 q -0.234,0.023 -0.441,0.023 a 4.022,4.022 0 0 1 -1.185,-0.16 q -1.765,-0.545 -1.765,-2.948 v -6.049 h -1.457 v -0.742 l 1.457,-0.641 0.649,-2.17 h 0.891 v 2.356 h 2.95 v 1.197 h -2.95 v 5.984 a 3.101,3.101 0 0 0 0.045,0.544 q 0.053,0.299 0.17,0.536 a 1.494,1.494 0 0 0 0.221,0.33 1.431,1.431 0 0 0 0.879,0.468 2.058,2.058 0 0 0 0.318,0.024 5.058,5.058 0 0 0 0.741,-0.053 4.661,4.661 0 0 0 0.047,-0.008 q 0.381,-0.06 0.603,-0.125 z m 9.556,0.06 a 4.296,4.296 0 0 0 0.511,-0.703 q 0.741,-1.267 0.741,-3.179 a 9.039,9.039 0 0 0 -0.003,-0.245 q -0.023,-0.846 -0.206,-1.565 a 4.795,4.795 0 0 0 -1.048,-2.031 4.032,4.032 0 0 0 -1.871,-1.207 5.175,5.175 0 0 0 -1.52,-0.213 5.981,5.981 0 0 0 -1.074,0.093 4.073,4.073 0 0 0 -2.377,1.294 4.255,4.255 0 0 0 -0.522,0.725 q -0.403,0.702 -0.581,1.602 a 7.996,7.996 0 0 0 -0.14,1.547 7.704,7.704 0 0 0 0.097,1.248 5.697,5.697 0 0 0 0.478,1.553 5.062,5.062 0 0 0 0.112,0.22 4.169,4.169 0 0 0 1.521,1.617 4.288,4.288 0 0 0 0.984,0.438 4.945,4.945 0 0 0 1.437,0.203 5.98,5.98 0 0 0 1.045,-0.088 4.106,4.106 0 0 0 2.416,-1.309 z m -6.494,-3.882 a 7.799,7.799 0 0 0 0.074,1.114 q 0.082,0.565 0.254,1.023 a 3.231,3.231 0 0 0 0.451,0.831 q 0.779,1.021 2.292,1.021 a 3.577,3.577 0 0 0 0.943,-0.117 2.489,2.489 0 0 0 1.353,-0.899 3.306,3.306 0 0 0 0.514,-1.003 q 0.152,-0.463 0.218,-1.029 a 8.112,8.112 0 0 0 0.052,-0.941 q 0,-1.244 -0.323,-2.104 a 3.171,3.171 0 0 0 -0.461,-0.842 q -0.784,-1.006 -2.315,-1.006 -1.512,0 -2.282,0.992 a 3.184,3.184 0 0 0 -0.495,0.957 q -0.146,0.439 -0.215,0.977 a 8.138,8.138 0 0 0 -0.06,1.026 z m 11.986,-0.344 v 0.344 a 10.183,10.183 0 0 0 0.05,1.052 q 0.111,1.062 0.465,1.708 a 2.323,2.323 0 0 0 0.199,0.306 q 0.715,0.923 2.292,0.923 1.267,0 2.006,-0.987 a 3.069,3.069 0 0 0 0.058,-0.08 3.723,3.723 0 0 0 0.511,-1.088 q 0.147,-0.499 0.203,-1.098 a 8.205,8.205 0 0 0 0.033,-0.755 7.771,7.771 0 0 0 -0.073,-1.102 q -0.08,-0.559 -0.249,-1.012 a 3.265,3.265 0 0 0 -0.425,-0.804 2.396,2.396 0 0 0 -1.752,-0.998 3.313,3.313 0 0 0 -0.349,-0.017 4.437,4.437 0 0 0 -0.829,0.072 q -0.462,0.088 -0.816,0.283 a 2.035,2.035 0 0 0 -0.61,0.507 q -0.695,0.863 -0.714,2.746 z"
       id="top_labelLayer"
       style="vector-effect:non-scaling-stroke;fill:#777777;stroke:#777777"
       inkscape:connector-curvature="0" />
    <path
       d="M 0 30 L 0 45.25 L 3 45.25 L 3 61.75 L 0 61.75 L 0 78.25 L 3 78.25 L 3 94.75 L 0 94.75 L 0 110 L 22.75 110 L 22.75 107 L 39.25 107 L 39.25 110 L 55.75 110 L 55.75 107 L 72.25 107 L 72.25 110 L 88.75 110 L 95 110 L 95 94.75 L 92 94.75 L 92 78.25 L 95 78.25 L 95 61.75 L 92 61.75 L 92 45.25 L 95 45.25 L 95 30 L 72.25 30 L 72.25 33 L 55.75 33 L 55.75 30 L 39.25 30 L 39.25 33 L 22.75 33 L 22.75 30 L 6.25 30 L 0 30 Z"
       id="back_outsideCutPath"
       stroke="#FF0000"
       stroke-width="0.1"
       style="stroke:#FF0000;stroke-width:0.74400001;stroke-miterlimit:4;stroke-dasharray:none"
       vector-effect="non-scaling-stroke" />
    <path
       d="m 55.69984,17.554952 h 0.063 q 0.257,-0.365 0.72,-0.904 a 27.864,27.864 0 0 1 0.303,-0.346 l 2.766,-2.93 h 1.539 l -3.469,3.649 3.711,4.914 h -1.57 l -3.024,-4.047 -0.976,0.844 v 3.203 h -1.282 V 9.7819515 h 1.282 v 6.4450005 q 0,0.43 -0.063,1.328 z m -26.242,3.281 h -0.094 l -0.273,1.102 h -0.93 V 9.7819515 h 1.297 v 2.9530005 a 27.039,27.039 0 0 1 -0.015,0.913 q -0.015,0.461 -0.048,0.868 h 0.063 a 2.949,2.949 0 0 1 2.152,-1.25 4.429,4.429 0 0 1 0.535,-0.031 3.964,3.964 0 0 1 1.116,0.149 2.967,2.967 0 0 1 1.506,1.003 q 0.933,1.152 0.933,3.262 0,1.488 -0.469,2.508 a 3.645,3.645 0 0 1 -0.472,0.769 3.07,3.07 0 0 1 -2.182,1.148 4.399,4.399 0 0 1 -0.432,0.02 3.934,3.934 0 0 1 -0.988,-0.12 3.423,3.423 0 0 1 -0.539,-0.188 2.872,2.872 0 0 1 -1.16,-0.95 z m 14.734,1.102 h -0.961 l -0.257,-1.219 h -0.063 q -0.641,0.805 -1.277,1.09 -0.637,0.285 -1.59,0.285 -1.274,0 -1.996,-0.656 a 2.132,2.132 0 0 1 -0.643,-1.124 3.263,3.263 0 0 1 -0.08,-0.743 2.244,2.244 0 0 1 1.277,-2.118 q 0.95,-0.506 2.608,-0.59 a 12.668,12.668 0 0 1 0.264,-0.011 l 1.453,-0.047 v -0.531 q 0,-0.616 -0.162,-1.035 a 1.447,1.447 0 0 0 -0.272,-0.453 q -0.433,-0.481 -1.387,-0.481 a 4.222,4.222 0 0 0 -0.971,0.121 q -0.446,0.106 -0.931,0.303 a 8.685,8.685 0 0 0 -0.519,0.232 l -0.399,-0.992 a 5.979,5.979 0 0 1 1.154,-0.474 6.806,6.806 0 0 1 0.233,-0.065 6.006,6.006 0 0 1 1.512,-0.195 q 0.957,0 1.605,0.266 a 2.207,2.207 0 0 1 0.664,0.413 2.054,2.054 0 0 1 0.53,0.818 q 0.124,0.336 0.174,0.753 a 5.103,5.103 0 0 1 0.034,0.609 z m 8.383,-8.274 -0.398,1.102 q -0.43,-0.172 -0.938,-0.285 a 5.357,5.357 0 0 0 -0.407,-0.076 q -0.199,-0.028 -0.376,-0.035 a 2.875,2.875 0 0 0 -0.115,-0.002 2.877,2.877 0 0 0 -1.168,0.219 q -1.225,0.54 -1.409,2.406 a 7.166,7.166 0 0 0 -0.033,0.703 6.281,6.281 0 0 0 0.063,0.914 q 0.068,0.464 0.212,0.841 a 2.69,2.69 0 0 0 0.362,0.667 2.06,2.06 0 0 0 1.335,0.797 3.138,3.138 0 0 0 0.552,0.046 5.429,5.429 0 0 0 1.497,-0.218 6.703,6.703 0 0 0 0.698,-0.243 v 1.149 a 3.689,3.689 0 0 1 -0.902,0.319 q -0.568,0.126 -1.262,0.126 a 4.847,4.847 0 0 1 -1.179,-0.135 3.287,3.287 0 0 1 -1.7,-1.009 q -0.88,-0.989 -1,-2.686 a 7.842,7.842 0 0 1 -0.019,-0.553 7.156,7.156 0 0 1 0.11,-1.301 q 0.135,-0.726 0.432,-1.298 a 3.575,3.575 0 0 1 0.493,-0.721 3.358,3.358 0 0 1 1.839,-1.057 5.091,5.091 0 0 1 1.11,-0.115 5.852,5.852 0 0 1 1.234,0.133 6.473,6.473 0 0 1 0.36,0.088 q 0.367,0.101 0.609,0.224 z m -22.03,0.979 a 1.725,1.725 0 0 0 -0.501,0.439 2.22,2.22 0 0 0 -0.322,0.613 q -0.216,0.607 -0.255,1.531 a 9.992,9.992 0 0 0 -0.009,0.423 q 0,1.533 0.434,2.324 a 1.956,1.956 0 0 0 0.168,0.258 q 0.601,0.777 1.929,0.777 1.196,0 1.781,-0.871 a 2.977,2.977 0 0 0 0.369,-0.797 q 0.217,-0.712 0.217,-1.707 a 7.662,7.662 0 0 0 -0.046,-0.873 q -0.11,-0.955 -0.48,-1.531 a 2.151,2.151 0 0 0 -0.06,-0.088 1.891,1.891 0 0 0 -1.204,-0.762 2.999,2.999 0 0 0 -0.608,-0.058 q -0.863,0 -1.413,0.322 z m 12.35,3.857 v -0.773 l -1.296,0.055 a 9.522,9.522 0 0 0 -0.761,0.055 q -0.751,0.087 -1.221,0.295 a 1.992,1.992 0 0 0 -0.249,0.13 1.384,1.384 0 0 0 -0.659,1.004 2.048,2.048 0 0 0 -0.025,0.32 q 0.001,0.703 0.426,1.071 0.426,0.367 1.192,0.367 a 3.571,3.571 0 0 0 0.771,-0.079 q 0.537,-0.118 0.934,-0.417 a 2.165,2.165 0 0 0 0.197,-0.168 q 0.688,-0.661 0.691,-1.846 a 4.13,4.13 0 0 0 0,-0.014 z"
       id="back_labelLayer"
       style="vector-effect:non-scaling-stroke;fill:#777777;stroke:#777777"
       inkscape:connector-curvature="0" />
    <path
       d="M 101 30 L 101 45.25 L 98 45.25 L 98 61.75 L 101 61.75 L 101 78.25 L 98 78.25 L 98 94.75 L 101 94.75 L 101 110 L 120.75 110 L 120.75 107 L 137.25 107 L 137.25 110 L 153.75 110 L 153.75 107 L 170.25 107 L 170.25 110 L 186.75 110 L 190 110 L 190 94.75 L 193 94.75 L 193 78.25 L 190 78.25 L 190 61.75 L 193 61.75 L 193 45.25 L 190 45.25 L 190 30 L 170.25 30 L 170.25 33 L 153.75 33 L 153.75 30 L 137.25 30 L 137.25 33 L 120.75 33 L 120.75 30 L 104.25 30 L 101 30 Z"
       id="right_outsideCutPath"
       stroke="#FF0000"
       stroke-width="0.1"
       style="stroke:#FF0000;stroke-width:0.74400001;stroke-miterlimit:4;stroke-dasharray:none"
       vector-effect="non-scaling-stroke" />
    <path
       d="m 154.69814,20.344239 h -1.297 v -5.539 a 3.666,3.666 0 0 0 -0.042,-0.575 q -0.048,-0.302 -0.151,-0.544 a 1.543,1.543 0 0 0 -0.283,-0.443 1.462,1.462 0 0 0 -0.6,-0.383 q -0.235,-0.083 -0.525,-0.114 a 3.438,3.438 0 0 0 -0.367,-0.019 3.925,3.925 0 0 0 -0.734,0.064 q -0.407,0.077 -0.72,0.249 a 1.816,1.816 0 0 0 -0.519,0.421 2.158,2.158 0 0 0 -0.366,0.649 q -0.221,0.595 -0.251,1.478 a 8.37,8.37 0 0 0 -0.004,0.28 v 4.476 h -1.297 V 8.1882388 h 1.297 v 3.6800002 a 11.666,11.666 0 0 1 -0.008,0.448 q -0.015,0.373 -0.055,0.653 h 0.078 a 2.591,2.591 0 0 1 0.908,-0.873 3.165,3.165 0 0 1 0.182,-0.099 3.329,3.329 0 0 1 1.093,-0.325 4.209,4.209 0 0 1 0.521,-0.031 q 1.57,0 2.355,0.746 0.61,0.58 0.746,1.69 a 5.608,5.608 0 0 1 0.039,0.681 z m -11.875,-8.562 h 2.961 v 0.82 l -1.586,0.188 a 2.108,2.108 0 0 1 0.183,0.271 q 0.08,0.14 0.152,0.308 a 3.998,3.998 0 0 1 0.056,0.135 2.495,2.495 0 0 1 0.148,0.596 3.204,3.204 0 0 1 0.024,0.4 2.973,2.973 0 0 1 -0.137,0.922 2.405,2.405 0 0 1 -0.723,1.086 q -0.774,0.676 -2.068,0.743 a 5.633,5.633 0 0 1 -0.291,0.007 4.168,4.168 0 0 1 -0.482,-0.027 3.52,3.52 0 0 1 -0.237,-0.035 2.308,2.308 0 0 0 -0.372,0.24 q -0.192,0.156 -0.303,0.333 a 0.976,0.976 0 0 0 -0.153,0.528 q 0,0.352 0.289,0.52 a 0.91,0.91 0 0 0 0.202,0.083 q 0.211,0.062 0.533,0.078 a 4.933,4.933 0 0 0 0.257,0.007 h 1.516 a 5.309,5.309 0 0 1 0.806,0.057 q 0.422,0.065 0.762,0.203 a 2.344,2.344 0 0 1 0.569,0.326 1.897,1.897 0 0 1 0.705,1.208 2.85,2.85 0 0 1 0.041,0.495 2.808,2.808 0 0 1 -0.161,0.971 q -0.267,0.731 -0.98,1.197 a 3.889,3.889 0 0 1 -1.003,0.455 q -0.494,0.15 -1.096,0.223 a 10.279,10.279 0 0 1 -1.229,0.068 q -1.68,0 -2.59,-0.625 -0.851,-0.585 -0.906,-1.62 a 2.739,2.739 0 0 1 -0.004,-0.146 q 0,-0.781 0.5,-1.351 a 2.265,2.265 0 0 1 0.778,-0.567 3.21,3.21 0 0 1 0.628,-0.207 1.346,1.346 0 0 1 -0.522,-0.422 1.598,1.598 0 0 1 -0.029,-0.039 1.202,1.202 0 0 1 -0.22,-0.649 1.489,1.489 0 0 1 -0.002,-0.077 1.483,1.483 0 0 1 0.075,-0.478 1.314,1.314 0 0 1 0.175,-0.342 1.856,1.856 0 0 1 0.245,-0.277 q 0.13,-0.122 0.298,-0.241 a 4.074,4.074 0 0 1 0.246,-0.162 2.274,2.274 0 0 1 -0.988,-0.791 2.818,2.818 0 0 1 -0.094,-0.139 2.681,2.681 0 0 1 -0.412,-1.292 3.272,3.272 0 0 1 -0.006,-0.208 q 0,-1.406 0.844,-2.168 a 2.754,2.754 0 0 1 1.057,-0.583 q 0.42,-0.128 0.925,-0.164 a 5.728,5.728 0 0 1 0.408,-0.015 4.971,4.971 0 0 1 0.658,0.042 3.786,3.786 0 0 1 0.553,0.115 z m 18.477,7.492 v 0.992 a 1.276,1.276 0 0 1 -0.152,0.06 q -0.187,0.062 -0.469,0.108 a 5.621,5.621 0 0 1 -0.367,0.048 q -0.173,0.016 -0.328,0.018 a 3.325,3.325 0 0 1 -0.044,0 3.387,3.387 0 0 1 -0.998,-0.134 q -1.097,-0.338 -1.384,-1.53 a 4.076,4.076 0 0 1 -0.102,-0.953 v -5.093 h -1.227 v -0.625 l 1.227,-0.54 0.547,-1.8280002 h 0.75 v 1.9850002 h 2.484 v 1.008 h -2.484 v 5.039 a 2.611,2.611 0 0 0 0.038,0.458 q 0.08,0.448 0.329,0.729 0.367,0.414 1.008,0.414 a 4.259,4.259 0 0 0 0.624,-0.044 3.925,3.925 0 0 0 0.04,-0.007 q 0.306,-0.048 0.49,-0.1 a 1.951,1.951 0 0 0 0.018,-0.005 z m -28.172,-7.555 -0.18,1.203 a 5.716,5.716 0 0 0 -0.411,-0.076 q -0.205,-0.029 -0.387,-0.038 a 3.042,3.042 0 0 0 -0.139,-0.003 2.247,2.247 0 0 0 -1.66,0.717 3.074,3.074 0 0 0 -0.118,0.127 2.962,2.962 0 0 0 -0.714,1.663 3.936,3.936 0 0 0 -0.024,0.438 v 4.594 h -1.297 v -8.562 h 1.071 l 0.148,1.586 h 0.062 a 4.38,4.38 0 0 1 0.49,-0.7 3.345,3.345 0 0 1 0.659,-0.589 2.585,2.585 0 0 1 1.476,-0.454 5.954,5.954 0 0 1 0.533,0.023 4.345,4.345 0 0 1 0.491,0.071 z m 2.898,0.063 v 8.562 h -1.297 v -8.562 z m 6.352,8.367 h -1.555 q -0.883,0 -1.375,0.422 a 1.367,1.367 0 0 0 -0.449,0.775 2.075,2.075 0 0 0 -0.043,0.436 1.302,1.302 0 0 0 0.086,0.483 q 0.123,0.311 0.424,0.521 a 1.522,1.522 0 0 0 0.076,0.05 q 0.586,0.36 1.68,0.36 1.632,0 2.418,-0.489 a 1.892,1.892 0 0 0 0.439,-0.367 1.418,1.418 0 0 0 0.346,-0.957 1.755,1.755 0 0 0 -0.032,-0.348 q -0.041,-0.201 -0.133,-0.35 a 0.817,0.817 0 0 0 -0.265,-0.267 q -0.327,-0.205 -1.094,-0.254 a 8.252,8.252 0 0 0 -0.523,-0.015 z m -2.719,-5.625 a 2.531,2.531 0 0 0 0.052,0.531 q 0.111,0.515 0.456,0.828 0.457,0.416 1.238,0.457 a 3.339,3.339 0 0 0 0.176,0.004 2.825,2.825 0 0 0 0.74,-0.088 q 0.846,-0.23 1.074,-1.061 a 2.627,2.627 0 0 0 0.084,-0.695 2.789,2.789 0 0 0 -0.095,-0.763 q -0.332,-1.166 -1.826,-1.166 a 2.721,2.721 0 0 0 -0.555,0.053 q -0.34,0.071 -0.599,0.236 a 1.493,1.493 0 0 0 -0.253,0.203 1.556,1.556 0 0 0 -0.376,0.634 q -0.116,0.358 -0.116,0.827 z m -4.82,-5.7150002 a 0.607,0.607 0 0 0 -0.134,0.19 q -0.085,0.185 -0.085,0.462 a 1.531,1.531 0 0 0 0.007,0.147 q 0.031,0.329 0.212,0.5060002 a 0.728,0.728 0 0 0 0.263,0.167 0.824,0.824 0 0 0 0.284,0.048 0.757,0.757 0 0 0 0.539,-0.215 q 0.226,-0.2150002 0.226,-0.6530002 a 1.484,1.484 0 0 0 -0.006,-0.14 q -0.032,-0.333 -0.22,-0.508 a 0.764,0.764 0 0 0 -0.539,-0.211 0.99,0.99 0 0 0 -0.066,0.002 0.75,0.75 0 0 0 -0.481,0.205 z"
       id="right_labelLayer"
       style="vector-effect:non-scaling-stroke;fill:#777777;stroke:#777777"
       inkscape:connector-curvature="0" />
    <path
       d="M 199 3 L 199 22.75 L 196 22.75 L 196 39.25 L 199 39.25 L 199 55.75 L 196 55.75 L 196 72.25 L 199 72.25 L 199 88.75 L 199 92 L 218.75 92 L 218.75 95 L 235.25 95 L 235.25 92 L 251.75 92 L 251.75 95 L 268.25 95 L 268.25 92 L 284.75 92 L 288 92 L 288 72.25 L 291 72.25 L 291 55.75 L 288 55.75 L 288 39.25 L 291 39.25 L 291 22.75 L 288 22.75 L 288 6.25 L 288 3 L 268.25 3 L 268.25 0 L 251.75 0 L 251.75 3 L 235.25 3 L 235.25 0 L 218.75 0 L 218.75 3 L 202.25 3 L 199 3 Z"
       id="bottom_outsideCutPath"
       stroke="#FF0000"
       stroke-width="0.1"
       style="stroke:#ff0000;stroke-width:0.74400001;stroke-opacity:1;fill:none;fill-opacity:1;stroke-miterlimit:4;stroke-dasharray:none"
       vector-effect="non-scaling-stroke" />
    <path
       d="m 361.60468,64.135916 h -1.54 v -6.615 q 0,-0.761 -0.204,-1.284 a 1.861,1.861 0 0 0 -0.315,-0.539 1.621,1.621 0 0 0 -0.754,-0.487 q -0.268,-0.087 -0.595,-0.111 a 3.575,3.575 0 0 0 -0.266,-0.01 3.963,3.963 0 0 0 -0.806,0.077 q -0.479,0.1 -0.841,0.329 a 2.039,2.039 0 0 0 -0.477,0.42 2.545,2.545 0 0 0 -0.432,0.781 q -0.255,0.715 -0.255,1.761 v 5.678 h -1.54 v -6.615 q 0,-0.761 -0.203,-1.284 a 1.861,1.861 0 0 0 -0.316,-0.539 1.615,1.615 0 0 0 -0.743,-0.483 q -0.268,-0.088 -0.594,-0.114 a 3.606,3.606 0 0 0 -0.287,-0.011 3.825,3.825 0 0 0 -0.791,0.077 q -0.488,0.103 -0.851,0.346 a 2.019,2.019 0 0 0 -0.478,0.445 2.583,2.583 0 0 0 -0.382,0.727 q -0.249,0.702 -0.284,1.756 a 10.722,10.722 0 0 0 -0.006,0.36 v 5.335 h -1.54 v -10.168 h 1.252 l 0.251,1.391 h 0.074 a 3.027,3.027 0 0 1 1.229,-1.159 3.656,3.656 0 0 1 1.444,-0.405 4.416,4.416 0 0 1 0.333,-0.013 q 1.476,0 2.32,0.662 a 2.629,2.629 0 0 1 0.797,1.064 h 0.074 a 3.216,3.216 0 0 1 1.211,-1.203 3.863,3.863 0 0 1 0.107,-0.059 3.898,3.898 0 0 1 1.43,-0.435 4.86,4.86 0 0 1 0.536,-0.029 5.353,5.353 0 0 1 0.971,0.082 q 0.54,0.1 0.962,0.321 a 2.538,2.538 0 0 1 0.651,0.483 2.652,2.652 0 0 1 0.57,0.932 q 0.153,0.41 0.225,0.921 a 7.064,7.064 0 0 1 0.063,0.981 z m -60.97,-1.308 h -0.112 l -0.324,1.308 h -1.104 v -14.436 h 1.54 v 3.507 a 32.109,32.109 0 0 1 -0.018,1.085 q -0.017,0.513 -0.052,0.97 a 19.195,19.195 0 0 1 -0.005,0.06 h 0.075 q 1.076,-1.521 3.191,-1.521 a 4.707,4.707 0 0 1 1.325,0.177 3.524,3.524 0 0 1 1.788,1.191 q 0.887,1.096 1.064,2.921 a 9.885,9.885 0 0 1 0.044,0.952 9.03,9.03 0 0 1 -0.119,1.52 q -0.139,0.809 -0.437,1.459 a 4.329,4.329 0 0 1 -0.562,0.913 3.646,3.646 0 0 1 -2.591,1.363 5.223,5.223 0 0 1 -0.512,0.024 4.671,4.671 0 0 1 -1.174,-0.143 4.064,4.064 0 0 1 -0.64,-0.223 3.411,3.411 0 0 1 -1.377,-1.127 z m 26.255,0.037 v 1.178 q -0.251,0.121 -0.738,0.199 a 6.675,6.675 0 0 1 -0.435,0.057 q -0.235,0.022 -0.442,0.022 a 4.022,4.022 0 0 1 -1.185,-0.159 q -1.765,-0.545 -1.765,-2.949 v -6.048 h -1.456 v -0.743 l 1.456,-0.64 0.649,-2.171 h 0.891 v 2.357 h 2.95 v 1.197 h -2.95 v 5.983 a 3.101,3.101 0 0 0 0.045,0.545 q 0.053,0.299 0.17,0.535 a 1.494,1.494 0 0 0 0.221,0.331 1.431,1.431 0 0 0 0.88,0.468 2.058,2.058 0 0 0 0.317,0.023 5.058,5.058 0 0 0 0.741,-0.053 4.661,4.661 0 0 0 0.047,-0.007 q 0.381,-0.06 0.604,-0.125 z m 6.707,0 v 1.178 q -0.25,0.121 -0.738,0.199 a 6.675,6.675 0 0 1 -0.435,0.057 q -0.234,0.022 -0.441,0.022 a 4.022,4.022 0 0 1 -1.186,-0.159 q -1.764,-0.545 -1.764,-2.949 v -6.048 h -1.457 v -0.743 l 1.457,-0.64 0.649,-2.171 h 0.891 v 2.357 h 2.95 v 1.197 h -2.95 v 5.983 a 3.101,3.101 0 0 0 0.044,0.545 q 0.054,0.299 0.171,0.535 a 1.494,1.494 0 0 0 0.221,0.331 1.431,1.431 0 0 0 0.879,0.468 2.058,2.058 0 0 0 0.317,0.023 5.058,5.058 0 0 0 0.741,-0.053 4.661,4.661 0 0 0 0.048,-0.007 q 0.38,-0.06 0.603,-0.125 z m -15.335,0.06 a 4.296,4.296 0 0 0 0.511,-0.703 q 0.741,-1.267 0.741,-3.18 a 9.039,9.039 0 0 0 -0.003,-0.244 q -0.023,-0.847 -0.206,-1.565 a 4.795,4.795 0 0 0 -1.048,-2.031 4.032,4.032 0 0 0 -1.872,-1.207 5.175,5.175 0 0 0 -1.519,-0.213 5.981,5.981 0 0 0 -1.074,0.092 4.073,4.073 0 0 0 -2.377,1.295 4.255,4.255 0 0 0 -0.523,0.725 q -0.402,0.701 -0.58,1.602 a 7.996,7.996 0 0 0 -0.14,1.546 7.704,7.704 0 0 0 0.096,1.248 5.697,5.697 0 0 0 0.479,1.554 5.062,5.062 0 0 0 0.112,0.22 4.169,4.169 0 0 0 1.521,1.617 4.288,4.288 0 0 0 0.984,0.438 4.945,4.945 0 0 0 1.437,0.202 5.98,5.98 0 0 0 1.044,-0.087 4.106,4.106 0 0 0 2.417,-1.309 z m 24.891,0 a 4.296,4.296 0 0 0 0.511,-0.703 q 0.741,-1.267 0.741,-3.18 a 9.039,9.039 0 0 0 -0.003,-0.244 q -0.023,-0.847 -0.206,-1.565 a 4.795,4.795 0 0 0 -1.048,-2.031 4.032,4.032 0 0 0 -1.872,-1.207 5.175,5.175 0 0 0 -1.519,-0.213 5.981,5.981 0 0 0 -1.074,0.092 4.073,4.073 0 0 0 -2.377,1.295 4.255,4.255 0 0 0 -0.523,0.725 q -0.402,0.701 -0.58,1.602 a 7.996,7.996 0 0 0 -0.14,1.546 7.704,7.704 0 0 0 0.097,1.248 5.697,5.697 0 0 0 0.478,1.554 5.062,5.062 0 0 0 0.112,0.22 4.169,4.169 0 0 0 1.521,1.617 4.288,4.288 0 0 0 0.984,0.438 4.945,4.945 0 0 0 1.437,0.202 5.98,5.98 0 0 0 1.045,-0.087 4.106,4.106 0 0 0 2.416,-1.309 z m -31.386,-3.883 a 7.799,7.799 0 0 0 0.075,1.115 q 0.081,0.565 0.254,1.023 a 3.231,3.231 0 0 0 0.451,0.831 q 0.779,1.021 2.291,1.021 a 3.577,3.577 0 0 0 0.944,-0.118 2.489,2.489 0 0 0 1.352,-0.898 3.306,3.306 0 0 0 0.515,-1.003 q 0.152,-0.463 0.218,-1.029 a 8.112,8.112 0 0 0 0.051,-0.942 q 0,-1.243 -0.322,-2.103 a 3.171,3.171 0 0 0 -0.462,-0.842 q -0.784,-1.007 -2.314,-1.007 -1.513,0 -2.283,0.993 a 3.184,3.184 0 0 0 -0.495,0.957 q -0.146,0.439 -0.214,0.977 a 8.138,8.138 0 0 0 -0.061,1.025 z m 24.892,0 a 7.799,7.799 0 0 0 0.074,1.115 q 0.082,0.565 0.254,1.023 a 3.231,3.231 0 0 0 0.451,0.831 q 0.779,1.021 2.291,1.021 a 3.577,3.577 0 0 0 0.944,-0.118 2.489,2.489 0 0 0 1.352,-0.898 3.306,3.306 0 0 0 0.515,-1.003 q 0.152,-0.463 0.218,-1.029 a 8.112,8.112 0 0 0 0.051,-0.942 q 0,-1.243 -0.322,-2.103 a 3.171,3.171 0 0 0 -0.462,-0.842 q -0.783,-1.007 -2.314,-1.007 -1.512,0 -2.282,0.993 a 3.184,3.184 0 0 0 -0.495,0.957 q -0.147,0.439 -0.215,0.977 a 8.138,8.138 0 0 0 -0.06,1.025 z m -33.056,-3.952 a 4.328,4.328 0 0 0 -0.838,0.076 q -0.477,0.094 -0.84,0.307 a 2.048,2.048 0 0 0 -0.595,0.522 2.636,2.636 0 0 0 -0.381,0.727 q -0.258,0.721 -0.304,1.818 a 11.865,11.865 0 0 0 -0.01,0.502 10.183,10.183 0 0 0 0.05,1.053 q 0.111,1.062 0.465,1.708 a 2.323,2.323 0 0 0 0.199,0.306 q 0.714,0.923 2.291,0.923 a 3.07,3.07 0 0 0 0.872,-0.117 2.215,2.215 0 0 0 1.244,-0.918 3.535,3.535 0 0 0 0.437,-0.946 q 0.137,-0.449 0.202,-0.993 a 8.824,8.824 0 0 0 0.057,-1.034 9.099,9.099 0 0 0 -0.056,-1.037 q -0.13,-1.134 -0.57,-1.818 a 2.555,2.555 0 0 0 -0.07,-0.105 2.246,2.246 0 0 0 -1.43,-0.904 3.562,3.562 0 0 0 -0.723,-0.07 z"
       id="bottom_labelLayer"
       style="vector-effect:non-scaling-stroke;fill:#777777;stroke:#777777"
       inkscape:connector-curvature="0" />
  </g>
</svg>
